<svg width="32" height="32" viewBox="0 0 32 32" fill="none" xmlns="http://www.w3.org/2000/svg">
<rect width="32" height="32" fill="#2B2B2B"/>
<path d="M11.3333 22.6666H20.6667C21.402 22.6666 22 22.0686 22 21.3333V13.9999C22 13.8231 21.9298 13.6535 21.8047 13.5285C21.6797 13.4035 21.5101 13.3333 21.3333 13.3333H19.3333V12.6666C19.3333 10.8286 17.838 9.33325 16 9.33325C14.162 9.33325 12.6667 10.8286 12.6667 12.6666V13.3333H10.6667C10.4899 13.3333 10.3203 13.4035 10.1953 13.5285C10.0702 13.6535 10 13.8231 10 13.9999V21.3333C10 22.0686 10.598 22.6666 11.3333 22.6666ZM14 12.6666C14 11.5639 14.8973 10.6666 16 10.6666C17.1027 10.6666 18 11.5639 18 12.6666V13.3333H14V12.6666ZM11.3333 14.6666H12.6667V15.9999H14V14.6666H18V15.9999H19.3333V14.6666H20.6667L20.668 21.3333H11.3333V14.6666Z" fill="white"/>
</svg>
