<svg width="92" height="20" viewBox="0 0 92 20" fill="none" xmlns="http://www.w3.org/2000/svg">
<path d="M11.164 17.4976V10.6676H13.4682L13.8107 7.99347H11.164V6.29014C11.164 5.51847 11.379 4.99014 12.4865 4.99014H13.8899V2.60597C13.2071 2.5328 12.5207 2.49747 11.834 2.50014C9.79736 2.50014 8.39903 3.74347 8.39903 6.02597V7.98847H6.10986V10.6626H8.40403V17.4976H11.164Z" fill="#BFBFBF"/>
<path d="M52.3607 6.66412C52.3715 6.80995 52.3715 6.95496 52.3715 7.09996C52.3715 11.5375 48.994 16.6508 42.8215 16.6508C40.9198 16.6508 39.1532 16.1 37.6665 15.1433C37.9365 15.1741 38.1965 15.185 38.4773 15.185C39.9882 15.1886 41.4562 14.6834 42.6448 13.7508C41.9444 13.7381 41.2653 13.507 40.7025 13.0897C40.1398 12.6725 39.7213 12.0899 39.5057 11.4233C39.7132 11.4541 39.9215 11.475 40.1398 11.475C40.4407 11.475 40.7432 11.4333 41.024 11.3608C40.2638 11.2073 39.5802 10.7952 39.0895 10.1947C38.5988 9.59414 38.3312 8.84216 38.3323 8.06662V8.02495C38.7798 8.27412 39.299 8.42995 39.849 8.45079C39.3882 8.14461 39.0104 7.72914 38.7493 7.24145C38.4881 6.75375 38.3518 6.209 38.3523 5.65579C38.3523 5.03245 38.5182 4.46079 38.809 3.96245C39.6525 4.99997 40.7044 5.84876 41.8968 6.45384C43.0891 7.05892 44.3953 7.4068 45.7307 7.47496C45.679 7.22495 45.6473 6.96579 45.6473 6.70579C45.6471 6.26492 45.7338 5.82834 45.9024 5.42099C46.071 5.01364 46.3183 4.64352 46.63 4.33178C46.9417 4.02004 47.3119 3.7728 47.7192 3.60419C48.1266 3.43558 48.5631 3.3489 49.004 3.34912C49.9707 3.34912 50.8432 3.75412 51.4565 4.40912C52.208 4.2638 52.9286 3.98947 53.5865 3.59829C53.336 4.37397 52.8113 5.03171 52.1107 5.44829C52.7772 5.37227 53.4285 5.197 54.0432 4.92829C53.5841 5.59754 53.0153 6.18441 52.3607 6.66412Z" fill="#BFBFBF"/>
<path d="M81.9993 6.14746C80.9774 6.14746 79.9973 6.55344 79.2746 7.27608C78.552 7.99872 78.146 8.97883 78.146 10.0008C78.146 11.0228 78.552 12.0029 79.2746 12.7255C79.9973 13.4482 80.9774 13.8541 81.9993 13.8541C83.0213 13.8541 84.0014 13.4482 84.724 12.7255C85.4467 12.0029 85.8527 11.0228 85.8527 10.0008C85.8527 8.97883 85.4467 7.99872 84.724 7.27608C84.0014 6.55344 83.0213 6.14746 81.9993 6.14746ZM81.9993 12.5033C81.3354 12.5033 80.6987 12.2396 80.2292 11.7701C79.7597 11.3006 79.496 10.6639 79.496 9.99996C79.496 9.33604 79.7597 8.6993 80.2292 8.22984C80.6987 7.76037 81.3354 7.49663 81.9993 7.49663C82.6633 7.49663 83.3 7.76037 83.7695 8.22984C84.2389 8.6993 84.5027 9.33604 84.5027 9.99996C84.5027 10.6639 84.2389 11.3006 83.7695 11.7701C83.3 12.2396 82.6633 12.5033 81.9993 12.5033Z" fill="#BFBFBF"/>
<path d="M86.0048 6.90409C86.5009 6.90409 86.9031 6.50189 86.9031 6.00575C86.9031 5.50962 86.5009 5.10742 86.0048 5.10742C85.5086 5.10742 85.1064 5.50962 85.1064 6.00575C85.1064 6.50189 85.5086 6.90409 86.0048 6.90409Z" fill="#BFBFBF"/>
<path d="M89.1106 5.09273C88.9177 4.59455 88.6229 4.14213 88.2451 3.76444C87.8672 3.38676 87.4147 3.09212 86.9165 2.89939C86.3334 2.68053 85.7174 2.56218 85.0948 2.54939C84.2923 2.51439 84.0381 2.50439 82.0031 2.50439C79.9681 2.50439 79.7073 2.50439 78.9115 2.54939C78.2893 2.56153 77.6738 2.6799 77.0915 2.89939C76.5931 3.0919 76.1404 3.38645 75.7626 3.76417C75.3847 4.14188 75.09 4.59441 74.8973 5.09273C74.6784 5.67574 74.5603 6.29176 74.5481 6.91439C74.5123 7.71606 74.5015 7.97023 74.5015 10.0061C74.5015 12.0411 74.5015 12.3002 74.5481 13.0977C74.5606 13.7211 74.6781 14.3361 74.8973 14.9202C75.0905 15.4184 75.3855 15.8707 75.7635 16.2484C76.1414 16.626 76.594 16.9207 77.0923 17.1136C77.6735 17.3412 78.2893 17.468 78.9131 17.4886C79.7156 17.5236 79.9698 17.5344 82.0048 17.5344C84.0398 17.5344 84.3006 17.5344 85.0965 17.4886C85.719 17.4759 86.335 17.3578 86.9181 17.1394C87.4163 16.9462 87.8687 16.6513 88.2464 16.2735C88.6242 15.8958 88.9191 15.4434 89.1123 14.9452C89.3315 14.3619 89.449 13.7469 89.4615 13.1236C89.4973 12.3219 89.5081 12.0677 89.5081 10.0319C89.5081 7.99606 89.5081 7.73773 89.4615 6.94023C89.4518 6.30879 89.3331 5.68377 89.1106 5.09273ZM88.0956 13.0361C88.0903 13.5163 88.0026 13.9921 87.8365 14.4427C87.7113 14.7668 87.5197 15.0611 87.274 15.3066C87.0283 15.5522 86.7339 15.7436 86.4098 15.8686C85.9642 16.0339 85.4934 16.1216 85.0181 16.1277C84.2265 16.1644 84.0031 16.1736 81.9731 16.1736C79.9415 16.1736 79.734 16.1736 78.9273 16.1277C78.4522 16.1219 77.9817 16.0342 77.5365 15.8686C77.2112 15.7444 76.9156 15.5533 76.6689 15.3077C76.4221 15.0621 76.2297 14.7674 76.104 14.4427C75.9402 13.9969 75.8526 13.5268 75.8448 13.0519C75.809 12.2602 75.8006 12.0369 75.8006 10.0069C75.8006 7.97606 75.8006 7.76856 75.8448 6.96106C75.8502 6.48108 75.9378 6.00558 76.104 5.55523C76.3581 4.89773 76.879 4.38023 77.5365 4.12856C77.982 3.96368 78.4523 3.87603 78.9273 3.86939C79.7198 3.83356 79.9423 3.82356 81.9731 3.82356C84.004 3.82356 84.2123 3.82356 85.0181 3.86939C85.4935 3.87511 85.9643 3.96279 86.4098 4.12856C86.7339 4.25379 87.0282 4.4454 87.2739 4.69109C87.5196 4.93678 87.7112 5.23112 87.8365 5.55523C88.0003 6.00102 88.0879 6.47119 88.0956 6.94606C88.1315 7.73856 88.1406 7.96106 88.1406 9.9919C88.1406 12.0219 88.1406 12.2402 88.1048 13.0369H88.0956V13.0361Z" fill="#BFBFBF"/>
</svg>
