<svg width="92" height="20" viewBox="0 0 92 20" fill="none" xmlns="http://www.w3.org/2000/svg">
<path d="M11.1643 17.4976V10.6676H13.4684L13.8109 7.99347H11.1643V6.29014C11.1643 5.51847 11.3793 4.99014 12.4868 4.99014H13.8901V2.60597C13.2073 2.5328 12.521 2.49747 11.8343 2.50014C9.79761 2.50014 8.39927 3.74347 8.39927 6.02597V7.98847H6.11011V10.6626H8.40427V17.4976H11.1643Z" fill="#595959"/>
<path d="M52.3609 6.66412C52.3717 6.80995 52.3717 6.95496 52.3717 7.09996C52.3717 11.5375 48.9942 16.6508 42.8217 16.6508C40.9201 16.6508 39.1534 16.1 37.6667 15.1433C37.9367 15.1741 38.1967 15.185 38.4776 15.185C39.9884 15.1886 41.4565 14.6834 42.6451 13.7508C41.9446 13.7381 41.2656 13.507 40.7028 13.0897C40.14 12.6725 39.7216 12.0899 39.5059 11.4233C39.7134 11.4541 39.9217 11.475 40.1401 11.475C40.4409 11.475 40.7434 11.4333 41.0242 11.3608C40.264 11.2073 39.5805 10.7952 39.0898 10.1947C38.5991 9.59414 38.3315 8.84216 38.3326 8.06662V8.02495C38.7801 8.27412 39.2992 8.42995 39.8492 8.45079C39.3885 8.14461 39.0107 7.72914 38.7495 7.24145C38.4884 6.75375 38.352 6.209 38.3526 5.65579C38.3526 5.03245 38.5184 4.46079 38.8092 3.96245C39.6527 4.99997 40.7047 5.84876 41.897 6.45384C43.0894 7.05892 44.3955 7.4068 45.7309 7.47496C45.6792 7.22495 45.6476 6.96579 45.6476 6.70579C45.6474 6.26492 45.734 5.82834 45.9026 5.42099C46.0713 5.01364 46.3185 4.64352 46.6302 4.33178C46.942 4.02004 47.3121 3.7728 47.7194 3.60419C48.1268 3.43558 48.5634 3.3489 49.0042 3.34912C49.9709 3.34912 50.8434 3.75412 51.4567 4.40912C52.2082 4.2638 52.9289 3.98947 53.5867 3.59829C53.3363 4.37397 52.8115 5.03171 52.1109 5.44829C52.7774 5.37227 53.4288 5.197 54.0434 4.92829C53.5844 5.59754 53.0155 6.18441 52.3609 6.66412Z" fill="#595959"/>
<path d="M81.9991 6.14746C80.9771 6.14746 79.997 6.55344 79.2744 7.27608C78.5517 7.99872 78.1458 8.97883 78.1458 10.0008C78.1458 11.0228 78.5517 12.0029 79.2744 12.7255C79.997 13.4482 80.9771 13.8541 81.9991 13.8541C83.0211 13.8541 84.0012 13.4482 84.7238 12.7255C85.4464 12.0029 85.8524 11.0228 85.8524 10.0008C85.8524 8.97883 85.4464 7.99872 84.7238 7.27608C84.0012 6.55344 83.0211 6.14746 81.9991 6.14746ZM81.9991 12.5033C81.3352 12.5033 80.6984 12.2396 80.229 11.7701C79.7595 11.3006 79.4958 10.6639 79.4958 9.99996C79.4958 9.33604 79.7595 8.6993 80.229 8.22984C80.6984 7.76037 81.3352 7.49663 81.9991 7.49663C82.663 7.49663 83.2997 7.76037 83.7692 8.22984C84.2387 8.6993 84.5024 9.33604 84.5024 9.99996C84.5024 10.6639 84.2387 11.3006 83.7692 11.7701C83.2997 12.2396 82.663 12.5033 81.9991 12.5033Z" fill="#595959"/>
<path d="M86.005 6.90409C86.5012 6.90409 86.9034 6.50189 86.9034 6.00575C86.9034 5.50962 86.5012 5.10742 86.005 5.10742C85.5089 5.10742 85.1067 5.50962 85.1067 6.00575C85.1067 6.50189 85.5089 6.90409 86.005 6.90409Z" fill="#595959"/>
<path d="M89.1109 5.09273C88.918 4.59455 88.6232 4.14213 88.2453 3.76444C87.8675 3.38676 87.415 3.09212 86.9167 2.89939C86.3337 2.68053 85.7177 2.56218 85.095 2.54939C84.2925 2.51439 84.0384 2.50439 82.0034 2.50439C79.9684 2.50439 79.7075 2.50439 78.9117 2.54939C78.2895 2.56153 77.674 2.6799 77.0917 2.89939C76.5933 3.0919 76.1407 3.38645 75.7628 3.76417C75.385 4.14188 75.0902 4.59441 74.8975 5.09273C74.6786 5.67574 74.5606 6.29176 74.5484 6.91439C74.5125 7.71606 74.5017 7.97023 74.5017 10.0061C74.5017 12.0411 74.5017 12.3002 74.5484 13.0977C74.5609 13.7211 74.6784 14.3361 74.8975 14.9202C75.0908 15.4184 75.3858 15.8707 75.7637 16.2484C76.1417 16.626 76.5943 16.9207 77.0925 17.1136C77.6737 17.3412 78.2895 17.468 78.9134 17.4886C79.7159 17.5236 79.97 17.5344 82.005 17.5344C84.04 17.5344 84.3009 17.5344 85.0967 17.4886C85.7193 17.4759 86.3352 17.3578 86.9184 17.1394C87.4165 16.9462 87.8689 16.6513 88.2467 16.2735C88.6245 15.8958 88.9194 15.4434 89.1125 14.9452C89.3317 14.3619 89.4492 13.7469 89.4617 13.1236C89.4975 12.3219 89.5084 12.0677 89.5084 10.0319C89.5084 7.99606 89.5084 7.73773 89.4617 6.94023C89.452 6.30879 89.3333 5.68377 89.1109 5.09273ZM88.0959 13.0361C88.0905 13.5163 88.0028 13.9921 87.8367 14.4427C87.7116 14.7668 87.52 15.0611 87.2743 15.3066C87.0286 15.5522 86.7342 15.7436 86.41 15.8686C85.9644 16.0339 85.4937 16.1216 85.0184 16.1277C84.2267 16.1644 84.0034 16.1736 81.9734 16.1736C79.9417 16.1736 79.7342 16.1736 78.9275 16.1277C78.4525 16.1219 77.982 16.0342 77.5367 15.8686C77.2114 15.7444 76.9159 15.5533 76.6691 15.3077C76.4224 15.0621 76.2299 14.7674 76.1042 14.4427C75.9404 13.9969 75.8528 13.5268 75.845 13.0519C75.8092 12.2602 75.8009 12.0369 75.8009 10.0069C75.8009 7.97606 75.8009 7.76856 75.845 6.96106C75.8504 6.48108 75.9381 6.00558 76.1042 5.55523C76.3584 4.89773 76.8792 4.38023 77.5367 4.12856C77.9822 3.96368 78.4526 3.87603 78.9275 3.86939C79.72 3.83356 79.9425 3.82356 81.9734 3.82356C84.0042 3.82356 84.2125 3.82356 85.0184 3.86939C85.4937 3.87511 85.9645 3.96279 86.41 4.12856C86.7341 4.25379 87.0285 4.4454 87.2742 4.69109C87.5199 4.93678 87.7115 5.23112 87.8367 5.55523C88.0005 6.00102 88.0881 6.47119 88.0959 6.94606C88.1317 7.73856 88.1409 7.96106 88.1409 9.9919C88.1409 12.0219 88.1409 12.2402 88.105 13.0369H88.0959V13.0361Z" fill="#595959"/>
</svg>
